<?xml version="1.0" standalone="no"?>
<!DOCTYPE svg PUBLIC "-//W3C//DTD SVG 20010904//EN"
 "http://www.w3.org/TR/2001/REC-SVG-20010904/DTD/svg10.dtd">
<svg version="1.0" xmlns="http://www.w3.org/2000/svg"
 width="500.000000pt" height="500.000000pt" viewBox="0 0 500.000000 500.000000"
 preserveAspectRatio="xMidYMid meet">
<metadata>
Created by potrace 1.14, written by Peter Selinger 2001-2017
</metadata>
<g transform="translate(0.000000,500.000000) scale(0.100000,-0.100000)"
fill="#000000" stroke="none">
<path d="M0 2500 l0 -2500 2500 0 2500 0 0 2500 0 2500 -2500 0 -2500 0 0
-2500z m1860 370 l0 -50 -105 0 -105 0 0 -340 0 -340 -60 0 -60 0 0 340 0 340
-105 0 -105 0 0 50 0 50 270 0 270 0 0 -50z m865 31 c76 -34 135 -123 135
-201 0 -75 -56 -162 -127 -199 l-34 -17 131 -172 131 -172 -74 0 -73 0 -124
170 -124 170 -68 0 -68 0 0 -170 0 -170 -250 0 -250 0 0 390 0 390 378 0 c343
0 381 -2 417 -19z m625 -267 c113 -157 211 -290 218 -296 9 -8 12 50 12 286
l0 296 55 0 55 0 0 -390 0 -390 -57 0 -58 0 -215 296 -215 295 -3 -295 -2
-296 -60 0 -60 0 0 390 0 390 63 0 62 -1 205 -285z m-230 -609 l0 -25 -605 0
-605 0 0 25 0 25 605 0 605 0 0 -25z m-720 -235 c0 -82 -3 -100 -15 -100 -12
0 -15 18 -15 100 0 82 3 100 15 100 12 0 15 -18 15 -100z m70 58 c17 -66 18
-67 19 -10 1 39 5 52 16 52 12 0 15 -18 15 -100 0 -90 -2 -100 -18 -100 -14 0
-22 14 -34 63 l-16 62 -1 -62 c-1 -49 -4 -63 -16 -63 -12 0 -15 18 -15 100 0
93 1 100 20 100 14 0 22 -11 30 -42z m148 30 c17 -17 15 -58 -3 -58 -8 0 -15
9 -15 20 0 11 -7 20 -15 20 -12 0 -15 -14 -15 -70 0 -56 3 -70 15 -70 8 0 15
9 15 20 0 11 7 20 15 20 18 0 20 -41 3 -58 -7 -7 -21 -12 -33 -12 -36 0 -45
20 -45 100 0 80 9 100 45 100 12 0 26 -5 33 -12z m62 -173 c0 -8 -7 -15 -15
-15 -8 0 -15 7 -15 15 0 8 7 15 15 15 8 0 15 -7 15 -15z"/>
<path d="M2047 2814 c-4 -4 -7 -52 -7 -106 l0 -98 140 0 141 0 -3 103 -3 102
-131 3 c-71 1 -133 -1 -137 -4z"/>
<path d="M2432 2704 l3 -118 120 3 c136 2 161 12 182 74 15 45 2 95 -33 128
-24 22 -34 24 -150 27 l-125 4 3 -118z"/>
<path d="M2047 2494 c-4 -4 -7 -61 -7 -126 l0 -118 140 0 141 0 -3 123 -3 122
-131 3 c-71 1 -133 -1 -137 -4z"/>
</g>
</svg>
